<?xml version="1.0" encoding="UTF-8"?>
<svg id="Layer_2" data-name="Layer 2" xmlns="http://www.w3.org/2000/svg" viewBox="0 0 179.66 179.64">
  <g id="Layer_1-2" data-name="Layer 1">
    <path d="m0,95.44c0-3.74,0-7.49,0-11.23.26-2.14.48-4.28.78-6.41,2.58-18.33,9.97-34.47,22.42-48.16C37.06,14.4,54.17,4.88,74.52,1.36c3.21-.56,6.46-.91,9.69-1.36,3.74,0,7.49,0,11.23,0,.51.1,1.01.23,1.53.3,3.47.48,6.97.77,10.4,1.45,47.69,9.39,79.29,55.45,70.96,103.35-7.24,41.59-42.25,72.6-84.36,74.44-22.29.97-42.38-5.43-59.86-19.35C16.29,146.01,5.34,127.6,1.34,105.14c-.57-3.21-.9-6.46-1.34-9.7Zm156.47-45.99c-.69,0-1.03,0-1.38,0-31.05,0-62.1,0-93.16-.04-1.25,0-1.7.53-2.15,1.51-11.94,25.87-23.9,51.73-35.85,77.6-.23.49-.42,1.01-.69,1.69.63,0,.98,0,1.32,0,31.05,0,62.1-.01,93.16.04,1.39,0,1.77-.68,2.23-1.67,11.33-24.54,22.67-49.08,34.01-73.62.8-1.74,1.59-3.48,2.51-5.5Z"/>
  </g>
</svg>