<?xml version="1.0" encoding="UTF-8"?>
<svg id="Layer_2" data-name="Layer 2" xmlns="http://www.w3.org/2000/svg" viewBox="0 0 76.59 114.12">
  <g id="Layer_1-2" data-name="Layer 1">
    <path d="m38.24,114.12c-4.02-6.2-8.01-12.23-11.88-18.33-6.81-10.76-13.25-21.74-18.74-33.24-2.85-5.97-5.38-12.07-6.86-18.56-1.53-6.7-.68-13.22,1.86-19.45C7.93,11.47,17.56,3.07,31.48.68c15.7-2.7,28.62,2.72,38.07,15.67,5.12,7.01,7.51,14.98,6.97,23.7-.3,4.91-2,9.51-3.84,14.02-5.07,12.44-11.5,24.18-18.61,35.54-4.83,7.72-9.84,15.34-14.77,23-.31.48-.65.93-1.05,1.52Zm-.04-58.3c9.81.05,17.54-7.59,17.62-17.41.08-9.64-7.44-17.72-17.73-17.69-9.46.03-17.23,7.73-17.3,17.35-.07,9.93,7.54,17.7,17.4,17.75Z"/>
  </g>
</svg>