<?xml version="1.0" standalone="no"?>
<!DOCTYPE svg PUBLIC "-//W3C//DTD SVG 20010904//EN"
 "http://www.w3.org/TR/2001/REC-SVG-20010904/DTD/svg10.dtd">
<svg version="1.0" xmlns="http://www.w3.org/2000/svg"
 width="700.000000pt" height="700.000000pt" viewBox="0 0 700.000000 700.000000"
 preserveAspectRatio="xMidYMid meet">
<metadata>
Created by potrace 1.14, written by Peter Selinger 2001-2017
</metadata>
<g transform="translate(0.000000,700.000000) scale(0.100000,-0.100000)"
fill="#000000" stroke="none">
<path d="M3278 6995 c-1 -1 -42 -5 -89 -9 -47 -4 -95 -8 -106 -10 -11 -3 -44
-7 -74 -11 -65 -8 -88 -11 -159 -25 -30 -6 -66 -14 -80 -16 -311 -62 -697
-209 -1000 -382 -86 -49 -301 -187 -339 -218 -9 -7 -52 -41 -96 -75 -432 -336
-819 -832 -1029 -1319 -16 -36 -35 -78 -42 -95 -54 -120 -153 -432 -180 -570
-2 -11 -10 -54 -19 -95 -29 -147 -36 -200 -52 -370 -15 -165 -8 -592 12 -711
2 -13 6 -46 9 -74 9 -78 23 -156 51 -285 71 -332 241 -752 415 -1033 30 -48
60 -95 65 -105 25 -44 135 -194 212 -289 203 -251 422 -457 690 -652 62 -44
115 -81 117 -81 3 0 32 -18 65 -40 33 -22 63 -40 67 -40 4 0 15 -6 23 -14 28
-25 302 -160 431 -213 271 -111 563 -191 839 -229 25 -3 57 -8 71 -10 162 -25
683 -25 841 1 13 2 47 7 74 10 72 10 86 12 120 19 17 3 44 8 60 11 342 65 743
213 1039 384 49 28 91 51 93 51 9 0 267 179 343 239 157 122 333 287 460 430
36 41 70 79 76 85 6 6 48 61 94 121 152 200 276 403 388 638 29 59 52 110 52
113 0 3 8 24 19 47 53 118 147 417 177 562 17 81 54 301 59 350 4 33 9 71 11
85 9 47 11 525 4 605 -16 169 -22 220 -25 225 -2 3 -6 30 -10 60 -4 30 -22
123 -40 205 -269 1195 -1141 2163 -2300 2553 -168 57 -420 119 -555 137 -19 3
-46 7 -60 10 -13 2 -52 7 -86 11 -33 3 -74 8 -90 10 -33 5 -540 14 -546 9z"/>
</g>
</svg>
