<svg xmlns="http://www.w3.org/2000/svg" width="54.316" height="54.317" viewBox="0 0 54.316 54.317">
  <path id="Path_56" data-name="Path 56" d="M40,34.567c.588.573,1.177,1.137,1.754,1.712q5.7,5.683,11.394,11.372a3.889,3.889,0,1,1-5.492,5.507q-6.423-6.427-12.837-12.865c-.242-.243-.382-.22-.641-.048a21.5,21.5,0,0,1-14.935,3.549,21.965,21.965,0,0,1-8.7-40.555A21.8,21.8,0,0,1,34.4,3.885,21.425,21.425,0,0,1,43.5,17.53a21.458,21.458,0,0,1-3.259,16.675c-.068.1-.135.207-.235.362M7.762,21.949A14.219,14.219,0,1,0,22.047,7.77,14.166,14.166,0,0,0,7.762,21.949" transform="translate(0 0)" fill="#00d1c9"/>
</svg>
