<?xml version="1.0" encoding="UTF-8"?>
<svg id="Layer_2" data-name="Layer 2" xmlns="http://www.w3.org/2000/svg" viewBox="0 0 180.92 180.87">
  <g id="Layer_1-2" data-name="Layer 1">
    <path d="m0,96.32c0-3.93,0-7.85,0-11.78.12-.54.31-1.08.35-1.62,1.51-18.32,7.99-34.7,19.52-48.97C33.86,16.63,51.85,5.77,73.79,1.61c3.56-.67,7.17-1.08,10.76-1.61,3.93,0,7.85,0,11.78,0,3.25.44,6.51.8,9.74,1.35,50.48,8.59,84.01,58.83,72.64,108.79-9.08,39.89-43.31,68.75-83.93,70.62-18.02.83-34.97-3.2-50.41-12.58C21.28,154.16,6.96,133.84,1.65,107.3c-.73-3.62-1.11-7.32-1.65-10.98Zm131.99-8.48c-.12-.61-.24-1.08-.31-1.55-2.52-17.01-20.48-27.57-36.53-21.47-1.15.44-1.85,1.04-1.84,2.43.03,16.04.03,32.08.01,48.12,0,1.58.73,2.35,2.28,2.35,14.36,0,28.73.3,43.07-.14,11.74-.36,18.41-13.18,12.54-23.18-3.8-6.46-10.67-8.86-19.22-6.55Zm-43.61,1.72c-.23,0-.46,0-.7,0,.22,8.46.45,16.93.67,25.39.03,1.26.15,2.54,1.77,2.58,1.52.04,1.69-1.17,1.76-2.35.23-4.12.69-8.25.65-12.37-.11-10.99-.42-21.98-.67-32.97-.01-.63.02-1.29-.18-1.87-.44-1.3-1.54-1.59-2.47-.81-.56.48-.79,1.6-.8,2.44-.06,6.65-.03,13.3-.03,19.95Zm-5.13,3.97c-.19,0-.39,0-.58,0,0,2.87-.07,5.74.02,8.61.14,4.55.31,9.09.63,13.63.05.67.96,1.28,1.47,1.92.55-.61,1.17-1.18,1.63-1.85.21-.3.12-.82.12-1.24-.02-14.13-.04-28.27-.08-42.4,0-1.15-.1-2.44-1.68-2.38-1.55.06-1.54,1.33-1.54,2.49,0,7.07,0,14.14,0,21.21Zm-1.42-.25c-.24,0-.49,0-.73-.01,0-5.17,0-10.35,0-15.52,0-.35.1-.78-.06-1.03-.42-.63-.96-1.17-1.45-1.75-.51.55-1.06,1.06-1.49,1.66-.17.24-.07.68-.08,1.03-.21,8.46-.51,16.92-.58,25.39-.03,4.12.35,8.24.56,12.37.06,1.07.2,2.42,1.59,2.14.64-.13,1.03-1.47,1.53-2.27.03-.05.01-.14.01-.21.24-7.27.47-14.53.71-21.8Zm-9.01,2.42c-.25,0-.49,0-.74.01.25,6.64.45,13.28.8,19.91.04.7.88,1.35,1.35,2.03.49-.58,1.35-1.13,1.4-1.74.37-4.74.82-9.49.78-14.24-.07-8.39-.42-16.79-.77-25.17-.03-.83-.81-2.26-1.34-2.31-1.58-.14-1.47,1.31-1.47,2.42-.02,6.36,0,12.73,0,19.09Zm-1.52-4.27c-.33,0-.66-.01-1-.02,0-5.32.05-10.64-.06-15.95-.01-.65-.84-1.28-1.28-1.92-.41.62-1.17,1.23-1.18,1.86-.23,13.36-1.43,26.72-.02,40.07.08.77.89,1.45,1.35,2.18.41-.7,1.14-1.39,1.18-2.11.4-8.03.69-16.06,1.01-24.1Zm-8.64-.57c-.3,0-.6.01-.9.02.29,8.25.56,16.5.93,24.74.03.68.69,1.34,1.06,2,.46-.67,1.24-1.3,1.32-2.01,1.58-13.08.25-26.16-.04-39.24-.01-.64-.77-1.25-1.18-1.88-.39.62-1.11,1.24-1.13,1.88-.1,4.83-.05,9.66-.05,14.49Zm-5.09,2.06c-.35,0-.69.01-1.04.02.34,7.68.65,15.36,1.05,23.03.03.6.67,1.17,1.02,1.75.37-.57,1.02-1.12,1.08-1.72.38-3.9.93-7.81.87-11.72-.11-8.67-.53-17.35-.9-26.02-.02-.49-.73-.95-1.12-1.42-.32.53-.92,1.05-.93,1.58-.07,4.83-.04,9.65-.04,14.48Zm-1.84,1.94c-.18-.01-.36-.02-.55-.03-.19-3.85-.34-7.7-.62-11.54-.04-.58-.71-1.11-1.1-1.66-.3.56-.83,1.1-.86,1.67-.54,10.83-1.46,21.67-.02,32.51.08.63.66,1.2,1,1.8.35-.61.96-1.2,1-1.82.43-6.97.77-13.95,1.13-20.92Zm-6.88-5.24c-.22,0-.45,0-.67-.01-.21.72-.52,1.43-.61,2.16-1.03,7.89-.92,15.78.02,23.67.08.69.66,1.32,1.01,1.98.3-.64.79-1.25.88-1.92,1.05-7.95,1.18-15.91.01-23.86-.1-.69-.42-1.35-.64-2.02Zm-5.31-.9c-2.13,3.13-2.1,25.79-.07,28.53,2.16-2.57,2.29-24.7.07-28.53Zm-5,27.98c2.14-3.41,2.09-24.39-.07-27.37-2.01,3.22-1.96,24.73.07,27.37Zm-5.01-25.08c-1.82,7.7-2.01,15.39.05,23.07,2.13-7.69,2.11-15.37-.05-23.07Zm-4.45,4.16c-1.85,2.95-1.92,12.47.07,14.76,1.51-4.92,1.54-9.75-.07-14.76Z"/>
  </g>
</svg>