<?xml version="1.0" encoding="UTF-8"?>
<svg id="Layer_2" data-name="Layer 2" xmlns="http://www.w3.org/2000/svg" viewBox="0 0 178.87 178.88">
  <g id="Layer_1-2" data-name="Layer 1">
    <path d="m89.46,178.88C39.63,178.88-.73,137.85.01,88.08.74,39.12,41.31-.8,90.94.01c48.32.79,87.93,40.42,87.93,89.43,0,49.27-40.17,89.43-89.42,89.43Zm-14.84-131.84c-6.68-.01-13.34.35-19.98,1.1-7.62.87-15.14,2.23-22.49,4.45-4.59,1.39-7.08,5.94-5.75,10.43,1.33,4.47,5.95,6.89,10.54,5.55,1.66-.48,3.33-.95,5.02-1.35,11.55-2.73,23.28-3.65,35.11-3.49,9.67.13,19.26,1.05,28.75,2.89,12.16,2.36,23.85,6.05,34.59,12.37,1.79,1.05,3.74,1.31,5.77.88,3.43-.72,5.97-3.41,6.54-6.87.55-3.35-1.04-6.72-4.05-8.51-7.36-4.36-15.19-7.63-23.35-10.16-16.52-5.12-33.47-7.24-50.71-7.32Zm-3.39,30.61c-1.98.1-5.45.2-8.9.45-8.52.61-16.88,2.1-25.06,4.56-3.92,1.17-6.03,4.95-4.92,8.73,1.1,3.75,4.98,5.77,8.89,4.6,9.33-2.78,18.89-4.1,28.6-4.32,7.33-.17,14.63.33,21.88,1.48,13.51,2.14,26.36,6.18,38.12,13.33,1.42.87,2.99,1.15,4.63.88,2.9-.48,5.16-2.63,5.73-5.41.59-2.92-.6-5.78-3.15-7.36-4.02-2.51-8.23-4.66-12.59-6.54-16.52-7.1-33.83-10.25-53.23-10.4Zm2.48,28.9c-4.59.3-9.19.51-13.77.93-6.68.61-13.27,1.78-19.8,3.31-3.12.73-4.94,3.69-4.22,6.72.71,2.99,3.64,4.8,6.73,4.1,7.2-1.61,14.47-2.81,21.83-3.38,7.94-.62,15.87-.5,23.76.6,11.62,1.62,22.52,5.29,32.57,11.39.7.43,1.58.69,2.4.77,2.55.27,4.9-1.32,5.71-3.73.84-2.49-.09-5.14-2.37-6.55-4.77-2.94-9.78-5.39-15.01-7.39-12.18-4.67-24.84-6.6-37.85-6.78Z"/>
  </g>
</svg>