<?xml version="1.0" encoding="UTF-8"?>
<svg id="Layer_2" data-name="Layer 2" xmlns="http://www.w3.org/2000/svg" viewBox="0 0 171.67 171.65">
  <g id="Layer_1-2" data-name="Layer 1">
    <g>
      <path d="m171.67,80.47v10.73c-.25,2.04-.47,4.09-.76,6.13-2.66,18.6-10.28,34.89-23.56,48.18-22.03,22.05-48.64,30.26-79.22,24.23-20.75-4.09-37.58-15.06-50.4-31.84C3.34,119.06-2.26,97.7.82,74.24c2.47-18.81,10.58-35.03,23.9-48.54C37.55,12.66,53.01,4.49,71.05,1.32c3.12-.55,6.28-.89,9.42-1.32,3.58,0,7.15,0,10.73,0,2.92.38,5.86.66,8.76,1.16,16.12,2.76,30.39,9.49,42.6,20.36,14.93,13.29,24.27,29.8,27.78,49.52.56,3.12.88,6.28,1.32,9.42Zm-28.69,5.33c-.06-31.57-25.69-57.16-57.18-57.11-31.56.06-57.16,25.69-57.11,57.18.05,31.55,25.7,57.17,57.18,57.11,31.56-.06,57.17-25.7,57.11-57.18Z"/>
      <path d="m101.89,97.77h-32.09c-.84-7.93-.81-15.86-.01-23.88h32.09c.83,7.93.81,15.86.01,23.88Z"/>
      <path d="m100.63,64.9h-29.54c.12-.76.19-1.44.33-2.11,1.36-6.52,3.13-12.92,6.69-18.63,1.22-1.95,2.79-3.78,4.53-5.29,2.18-1.9,4.37-1.88,6.5.06,1.79,1.63,3.41,3.56,4.66,5.62,3.38,5.6,5.11,11.84,6.44,18.2.14.64.23,1.3.39,2.15Z"/>
      <path d="m100.85,106.79c-1.01,3.81-1.87,7.49-2.98,11.09-1.38,4.44-3.22,8.68-6.14,12.37-4.02,5.09-7.8,5.11-11.8-.03-3.89-4.98-5.86-10.85-7.46-16.86-.57-2.13-.98-4.31-1.49-6.57h29.87Z"/>
      <path d="m60.54,97.86h-2.9c-5.64,0-11.27-.03-16.91.02-1.16.01-1.75-.2-2.03-1.51-1.51-7.15-1.57-14.28.16-21.39.11-.46.78-1.12,1.2-1.13,6.7-.07,13.39-.04,20.09-.03.15,0,.31.09.39.12v23.91Z"/>
      <path d="m111.13,97.71v-23.91c1.27,0,2.59,0,3.92,0,5.3,0,10.6.03,15.9-.02,1.17-.01,1.74.22,2.02,1.52,1.51,7.15,1.57,14.28-.17,21.39-.11.46-.79,1.11-1.2,1.12-6.7.06-13.39.04-20.09.03-.15,0-.31-.1-.38-.12Z"/>
      <path d="m101.63,40.17c12.65,4.79,21.67,12.83,27.68,24.65h-19.58c-1.54-8.37-3.68-16.64-8.1-24.65Z"/>
      <path d="m101.63,131.5c4.39-8,6.56-16.21,8.08-24.7h19.6c-5.98,11.84-15.02,19.88-27.69,24.7Z"/>
      <path d="m61.76,64.88h-19.07c1.5-8,17.53-22.43,26.77-24.29-1.5,3.88-3.23,7.8-4.52,11.86-1.28,4.03-2.12,8.2-3.18,12.44Z"/>
      <path d="m61.95,106.81c1.53,8.43,3.68,16.65,7.86,24.27-8.71-1.15-24.91-15.62-27.17-24.27h19.31Z"/>
    </g>
  </g>
</svg>