<?xml version="1.0" encoding="UTF-8"?>
<svg id="Layer_2" data-name="Layer 2" xmlns="http://www.w3.org/2000/svg" viewBox="0 0 180.48 180.48">
  <g id="Layer_1-2" data-name="Layer 1">
    <g id="youtube">
      <path id="Path_21" data-name="Path 21" d="m135.36,93.65c-.04,4.88-.34,9.76-.9,14.61-.43,3.24-1.66,6.32-3.59,8.96-2.39,2.41-5.64,3.79-9.04,3.82-12.62.93-31.59.93-31.59.93,0,0-23.46-.21-30.68-.93-3.67-.05-7.2-1.41-9.95-3.85-1.93-2.64-3.16-5.72-3.59-8.96-.56-4.85-.86-9.72-.9-14.61v-6.81c.04-4.88.34-9.76.9-14.61.43-3.24,1.66-6.32,3.59-8.95,2.39-2.42,5.64-3.79,9.04-3.83,12.63-.93,31.57-.93,31.57-.93h.05s18.94,0,31.57.93c3.4.04,6.65,1.41,9.04,3.83,1.93,2.64,3.16,5.72,3.59,8.95.56,4.85.86,9.72.9,14.61v6.84ZM90.24,0C40.4,0,0,40.4,0,90.24s40.4,90.24,90.24,90.24,90.24-40.4,90.24-90.24S140.08,0,90.24,0m-9.32,101.95l24.38-12.63-24.39-12.73v25.36Z"/>
    </g>
  </g>
</svg>